<?xml version="1.0" encoding="utf-8"?><!DOCTYPE svg PUBLIC "-//W3C//DTD SVG 1.1//EN" "http://www.w3.org/Graphics/SVG/1.1/DTD/svg11.dtd"><svg xmlns="http://www.w3.org/2000/svg" width="640" height="640" viewBox="0 0 117 117" shape-rendering="crispEdges"><path fill="#ffffff" d="M0 0h117v117H0z"/><path stroke="#000000" d="M4 4.5h7m1 0h1m1 0h2m2 0h1m1 0h2m2 0h3m3 0h2m1 0h1m1 0h1m1 0h6m1 0h1m2 0h1m1 0h1m2 0h2m1 0h1m1 0h2m1 0h7m1 0h5m3 0h2m1 0h3m1 0h3m3 0h1m1 0h1m3 0h3m1 0h1m4 0h1m1 0h7M4 5.5h1m5 0h1m5 0h3m3 0h2m3 0h4m3 0h1m1 0h1m1 0h2m1 0h1m1 0h1m1 0h1m1 0h1m1 0h2m5 0h1m2 0h1m2 0h4m5 0h2m1 0h4m1 0h2m1 0h1m1 0h1m1 0h2m1 0h1m2 0h3m2 0h1m1 0h1m1 0h2m1 0h1m1 0h1m5 0h1M4 6.5h1m1 0h3m1 0h1m3 0h1m2 0h2m2 0h3m1 0h2m1 0h1m1 0h1m2 0h2m1 0h1m1 0h2m1 0h1m3 0h3m1 0h1m1 0h1m2 0h1m3 0h2m1 0h1m1 0h2m2 0h1m4 0h6m1 0h1m2 0h1m1 0h4m3 0h2m1 0h1m2 0h1m1 0h2m1 0h3m1 0h1m1 0h3m1 0h1M4 7.5h1m1 0h3m1 0h1m1 0h1m2 0h2m3 0h5m6 0h4m2 0h2m2 0h2m1 0h2m3 0h4m2 0h2m2 0h1m2 0h1m2 0h1m2 0h3m3 0h2m1 0h1m2 0h1m1 0h2m2 0h2m2 0h5m3 0h1m1 0h4m2 0h1m1 0h3m1 0h1M4 8.5h1m1 0h3m1 0h1m1 0h1m2 0h4m3 0h1m2 0h1m1 0h3m1 0h12m1 0h5m1 0h1m1 0h1m1 0h8m2 0h1m5 0h3m1 0h4m1 0h7m2 0h1m1 0h1m3 0h4m1 0h2m1 0h3m1 0h1m1 0h3m1 0h1M4 9.5h1m5 0h1m1 0h1m2 0h1m1 0h1m1 0h4m4 0h6m3 0h4m1 0h2m1 0h1m1 0h2m6 0h1m1 0h1m3 0h1m1 0h1m2 0h1m2 0h1m5 0h1m2 0h1m1 0h2m3 0h1m1 0h2m1 0h1m1 0h2m2 0h1m2 0h2m1 0h1m1 0h1m2 0h1m5 0h1M4 10.5h7m1 0h1m1 0h1m1 0h1m1 0h1m1 0h1m1 0h1m1 0h1m1 0h1m1 0h1m1 0h1m1 0h1m1 0h1m1 0h1m1 0h1m1 0h1m1 0h1m1 0h1m1 0h1m1 0h1m1 0h1m1 0h1m1 0h1m1 0h1m1 0h1m1 0h1m1 0h1m1 0h1m1 0h1m1 0h1m1 0h1m1 0h1m1 0h1m1 0h1m1 0h1m1 0h1m1 0h1m1 0h1m1 0h1m1 0h1m1 0h1m1 0h1m1 0h1m1 0h1m1 0h1m1 0h1m1 0h1m1 0h1m1 0h7M12 11.5h1m3 0h2m1 0h2m2 0h2m2 0h2m3 0h1m3 0h4m6 0h3m3 0h5m3 0h2m4 0h1m1 0h4m1 0h3m3 0h2m3 0h5m1 0h3m1 0h2m2 0h1M4 12.5h1m3 0h1m1 0h4m4 0h2m2 0h1m1 0h3m1 0h1m2 0h6m1 0h1m2 0h2m2 0h1m1 0h1m1 0h2m1 0h1m1 0h8m2 0h1m1 0h1m1 0h1m3 0h2m4 0h7m4 0h1m2 0h3m5 0h2m1 0h1m1 0h5m2 0h1M4 13.5h1m2 0h2m2 0h2m2 0h2m1 0h2m4 0h1m1 0h4m1 0h1m1 0h1m2 0h1m2 0h2m1 0h6m2 0h2m1 0h7m1 0h4m4 0h2m1 0h2m2 0h1m2 0h2m2 0h1m3 0h2m1 0h4m2 0h1m2 0h1m1 0h2m2 0h3m1 0h1m2 0h1M4 14.5h2m1 0h1m2 0h2m2 0h1m1 0h4m1 0h1m1 0h4m1 0h1m4 0h2m1 0h2m3 0h3m1 0h6m1 0h2m4 0h2m1 0h1m1 0h2m1 0h2m1 0h2m1 0h2m1 0h2m1 0h3m1 0h3m2 0h4m3 0h1m1 0h1m2 0h4m2 0h3m2 0h3M4 15.5h2m1 0h2m2 0h1m6 0h2m1 0h3m1 0h1m1 0h2m1 0h2m1 0h2m8 0h2m1 0h1m1 0h1m2 0h2m1 0h1m2 0h2m5 0h2m5 0h3m2 0h2m1 0h3m3 0h1m4 0h1m1 0h4m1 0h1m4 0h1m3 0h1m2 0h1M4 16.5h2m4 0h4m1 0h1m1 0h1m1 0h4m1 0h1m1 0h4m1 0h7m4 0h1m1 0h1m1 0h4m3 0h1m6 0h1m1 0h3m2 0h2m1 0h3m3 0h1m1 0h1m1 0h1m1 0h2m1 0h9m1 0h6m3 0h1m4 0h1M4 17.5h2m1 0h1m3 0h1m1 0h2m4 0h3m1 0h2m3 0h1m5 0h1m1 0h3m1 0h1m2 0h2m1 0h1m1 0h2m1 0h2m3 0h6m2 0h1m5 0h1m2 0h8m5 0h2m2 0h1m2 0h2m1 0h1m1 0h3m5 0h1m2 0h1m1 0h1M4 18.5h2m1 0h1m2 0h1m2 0h1m2 0h1m1 0h1m1 0h3m1 0h1m3 0h2m1 0h1m1 0h2m1 0h1m1 0h1m1 0h1m2 0h4m2 0h1m2 0h1m1 0h1m1 0h3m2 0h1m1 0h1m1 0h1m5 0h2m1 0h4m1 0h2m3 0h1m2 0h5m2 0h1m1 0h1m3 0h3m1 0h1m6 0h2M6 19.5h1m1 0h1m2 0h3m3 0h2m1 0h1m1 0h2m1 0h1m1 0h2m1 0h1m5 0h2m2 0h2m3 0h1m2 0h2m1 0h2m3 0h2m4 0h3m1 0h1m1 0h1m1 0h2m6 0h1m1 0h6m4 0h1m1 0h4m1 0h1m4 0h4m3 0h1M5 20.5h1m1 0h4m1 0h1m1 0h3m2 0h1m1 0h13m1 0h2m1 0h2m2 0h1m3 0h1m1 0h1m1 0h1m1 0h1m2 0h4m1 0h1m4 0h1m2 0h1m4 0h1m4 0h1m1 0h1m6 0h2m2 0h5m4 0h1m3 0h3m1 0h1m1 0h1M4 21.5h3m1 0h1m3 0h2m1 0h1m2 0h2m2 0h2m2 0h1m2 0h1m1 0h1m1 0h4m1 0h2m2 0h2m3 0h1m2 0h5m1 0h2m3 0h6m2 0h5m2 0h3m2 0h2m3 0h1m4 0h4m1 0h1m1 0h3m1 0h2m7 0h1M4 22.5h2m1 0h5m7 0h1m1 0h1m5 0h3m1 0h3m1 0h2m3 0h10m2 0h1m1 0h1m3 0h1m2 0h1m1 0h2m1 0h2m1 0h2m1 0h2m1 0h2m1 0h1m2 0h1m2 0h3m2 0h1m1 0h2m2 0h1m1 0h3m1 0h3m2 0h1m1 0h1m2 0h2M7 23.5h1m3 0h1m4 0h1m1 0h1m4 0h2m1 0h1m2 0h1m2 0h1m1 0h6m1 0h3m2 0h1m1 0h1m2 0h2m4 0h2m1 0h3m1 0h1m1 0h1m2 0h1m1 0h1m2 0h1m2 0h7m3 0h1m2 0h1m3 0h1m2 0h1m2 0h1m1 0h2m3 0h1m3 0h2M7 24.5h1m2 0h1m1 0h3m2 0h2m1 0h1m3 0h2m3 0h7m2 0h1m3 0h2m4 0h2m4 0h4m6 0h1m3 0h3m1 0h2m4 0h1m1 0h2m2 0h5m1 0h1m1 0h1m1 0h1m1 0h2m5 0h1m4 0h1m1 0h1m1 0h1M5 25.5h2m2 0h1m5 0h2m1 0h2m1 0h1m3 0h1m1 0h1m4 0h1m1 0h2m2 0h4m2 0h3m1 0h1m1 0h5m1 0h1m3 0h3m1 0h3m1 0h4m2 0h1m1 0h1m2 0h1m2 0h1m2 0h1m2 0h1m1 0h3m1 0h4m1 0h1m2 0h2m1 0h3m3 0h1M5 26.5h1m1 0h1m1 0h2m4 0h1m1 0h3m2 0h1m1 0h2m2 0h2m1 0h3m2 0h3m3 0h1m1 0h4m1 0h1m1 0h1m2 0h2m1 0h1m1 0h2m1 0h1m1 0h2m3 0h5m1 0h2m1 0h6m1 0h1m2 0h1m1 0h1m2 0h2m1 0h2m1 0h1m2 0h3m1 0h2m3 0h1M4 27.5h5m2 0h1m1 0h1m10 0h1m6 0h5m2 0h1m2 0h1m3 0h1m2 0h1m1 0h5m1 0h1m1 0h1m1 0h2m1 0h2m1 0h2m4 0h2m3 0h2m5 0h2m1 0h1m2 0h4m1 0h1m3 0h5m5 0h3M4 28.5h1m1 0h1m1 0h1m1 0h1m1 0h3m1 0h6m1 0h5m2 0h1m2 0h1m3 0h2m1 0h1m2 0h1m1 0h1m1 0h2m3 0h1m4 0h6m2 0h1m2 0h1m2 0h1m1 0h2m1 0h3m1 0h3m1 0h1m5 0h1m1 0h1m1 0h3m1 0h1m1 0h4m1 0h1m3 0h4M4 29.5h4m3 0h1m2 0h1m1 0h1m1 0h1m3 0h1m2 0h5m4 0h2m1 0h2m1 0h1m3 0h1m3 0h2m1 0h1m1 0h1m2 0h1m1 0h4m1 0h5m1 0h2m1 0h1m2 0h1m1 0h1m1 0h1m1 0h3m1 0h1m1 0h1m1 0h2m1 0h3m3 0h1m1 0h1m1 0h1m1 0h4m2 0h1m1 0h1M4 30.5h5m1 0h1m1 0h1m1 0h1m3 0h1m2 0h3m1 0h1m4 0h1m2 0h4m1 0h1m1 0h1m5 0h1m1 0h3m1 0h7m1 0h1m2 0h4m3 0h1m1 0h1m2 0h9m3 0h1m1 0h2m3 0h1m1 0h1m2 0h3m4 0h1m1 0h5M4 31.5h1m1 0h1m1 0h2m8 0h1m1 0h1m2 0h1m1 0h1m2 0h5m3 0h1m1 0h1m3 0h1m1 0h2m1 0h2m1 0h1m4 0h2m1 0h1m1 0h2m4 0h6m1 0h1m4 0h1m1 0h2m2 0h2m1 0h2m1 0h6m1 0h1m4 0h1m1 0h4m3 0h1M4 32.5h1m1 0h7m2 0h3m2 0h1m1 0h1m2 0h1m1 0h2m1 0h7m3 0h1m1 0h4m1 0h1m3 0h2m3 0h5m3 0h2m2 0h1m1 0h1m2 0h2m2 0h8m5 0h1m1 0h1m2 0h4m2 0h2m1 0h5m1 0h1M6 33.5h1m1 0h1m3 0h1m1 0h2m2 0h2m4 0h1m1 0h1m2 0h1m1 0h2m3 0h2m1 0h1m1 0h1m5 0h1m1 0h1m3 0h1m1 0h2m3 0h2m1 0h1m1 0h1m1 0h6m2 0h3m1 0h2m3 0h3m1 0h2m1 0h4m1 0h1m3 0h3m1 0h1m3 0h2M4 34.5h2m1 0h2m1 0h1m1 0h2m1 0h2m2 0h1m4 0h1m1 0h2m3 0h2m1 0h1m1 0h1m1 0h4m1 0h1m2 0h1m1 0h3m1 0h5m1 0h1m1 0h1m2 0h1m1 0h2m1 0h1m5 0h1m5 0h1m1 0h1m1 0h2m2 0h1m1 0h2m1 0h2m1 0h2m2 0h1m1 0h1m1 0h1m1 0h1m1 0h1M4 35.5h1m3 0h1m3 0h1m2 0h1m1 0h2m1 0h1m3 0h1m1 0h1m2 0h1m1 0h2m3 0h1m1 0h1m2 0h1m1 0h3m1 0h1m2 0h1m4 0h2m3 0h2m2 0h1m1 0h7m2 0h1m1 0h4m3 0h1m2 0h1m2 0h1m1 0h2m5 0h1m3 0h2m3 0h5M4 36.5h1m1 0h7m1 0h3m2 0h1m2 0h1m2 0h1m3 0h1m2 0h5m1 0h4m3 0h2m3 0h1m2 0h10m4 0h1m3 0h1m1 0h1m1 0h2m3 0h9m3 0h5m2 0h3m2 0h5m1 0h1M4 37.5h3m1 0h2m6 0h1m2 0h3m1 0h2m1 0h4m1 0h4m1 0h1m1 0h1m1 0h1m1 0h1m2 0h2m1 0h2m2 0h2m1 0h1m1 0h5m1 0h1m1 0h2m2 0h2m5 0h4m1 0h2m1 0h1m1 0h1m1 0h1m1 0h3m1 0h1m1 0h2m2 0h2m2 0h1m2 0h1m1 0h4M5 38.5h1m1 0h1m1 0h2m1 0h2m2 0h1m1 0h1m2 0h5m4 0h2m2 0h2m1 0h1m1 0h3m1 0h2m1 0h1m1 0h1m1 0h4m2 0h1m2 0h1m1 0h1m2 0h1m1 0h1m2 0h5m2 0h1m1 0h3m1 0h1m3 0h3m2 0h1m1 0h1m2 0h5m3 0h1m1 0h3m2 0h1M7 39.5h1m1 0h1m1 0h3m1 0h1m1 0h2m1 0h1m1 0h1m1 0h1m1 0h1m4 0h1m2 0h1m2 0h1m6 0h5m1 0h1m1 0h1m1 0h5m1 0h1m1 0h1m4 0h2m1 0h1m3 0h2m3 0h1m1 0h2m2 0h1m2 0h1m1 0h1m3 0h4m2 0h3m1 0h1m1 0h2m1 0h1m2 0h1M10 40.5h3m2 0h3m3 0h2m3 0h1m2 0h3m2 0h2m4 0h4m1 0h1m2 0h1m1 0h3m1 0h4m2 0h3m1 0h3m3 0h2m2 0h2m3 0h1m1 0h3m1 0h1m2 0h1m1 0h5m3 0h3m1 0h1m6 0h2m1 0h1M4 41.5h1m2 0h3m1 0h1m2 0h1m2 0h1m1 0h1m1 0h4m1 0h1m2 0h1m1 0h2m1 0h1m1 0h1m2 0h1m1 0h2m6 0h1m1 0h2m1 0h1m2 0h3m1 0h1m1 0h2m1 0h2m1 0h4m1 0h7m5 0h1m3 0h1m5 0h1m7 0h1m1 0h2m1 0h2m1 0h1M5 42.5h2m1 0h1m1 0h1m1 0h1m1 0h3m1 0h1m1 0h2m2 0h3m2 0h2m2 0h2m1 0h2m2 0h2m1 0h4m1 0h2m2 0h1m1 0h5m3 0h1m1 0h1m4 0h1m1 0h1m1 0h5m2 0h1m4 0h1m1 0h2m1 0h1m2 0h5m2 0h1m1 0h1m2 0h1m3 0h2m1 0h1M4 43.5h1m1 0h3m4 0h1m2 0h3m1 0h2m2 0h2m1 0h5m3 0h1m2 0h2m2 0h1m2 0h1m1 0h1m2 0h1m3 0h1m2 0h2m1 0h1m1 0h6m1 0h2m1 0h1m2 0h2m1 0h1m2 0h4m1 0h1m2 0h2m1 0h1m1 0h1m2 0h3m2 0h2m1 0h2m1 0h1m1 0h3M4 44.5h2m1 0h1m2 0h1m4 0h2m2 0h1m2 0h3m3 0h1m1 0h1m2 0h2m1 0h1m2 0h1m1 0h1m4 0h1m1 0h2m3 0h1m1 0h1m1 0h1m1 0h2m3 0h1m2 0h2m1 0h1m1 0h7m2 0h3m3 0h1m2 0h1m1 0h2m1 0h3m4 0h1m1 0h1m2 0h2m1 0h2M4 45.5h5m2 0h4m1 0h3m2 0h1m3 0h4m1 0h2m1 0h3m1 0h2m1 0h1m2 0h2m1 0h2m1 0h1m2 0h2m3 0h3m1 0h1m1 0h3m1 0h5m2 0h3m1 0h1m1 0h5m1 0h1m4 0h1m2 0h1m1 0h3m1 0h1m1 0h1m1 0h2m1 0h2M6 46.5h1m3 0h7m1 0h1m1 0h2m1 0h3m1 0h2m1 0h1m1 0h1m5 0h1m2 0h2m2 0h3m2 0h2m6 0h1m2 0h6m2 0h1m2 0h1m2 0h2m4 0h1m1 0h1m1 0h3m3 0h1m5 0h2m1 0h1m3 0h1m1 0h1m1 0h3m1 0h1M8 47.5h1m2 0h1m3 0h3m3 0h1m1 0h3m1 0h1m1 0h1m1 0h2m2 0h2m1 0h1m1 0h2m1 0h1m5 0h1m2 0h1m1 0h1m2 0h2m1 0h1m1 0h3m2 0h2m2 0h1m1 0h3m1 0h1m1 0h2m1 0h1m4 0h5m1 0h2m1 0h1m2 0h2m1 0h4m1 0h3m1 0h2M4 48.5h2m1 0h2m1 0h1m4 0h1m1 0h1m1 0h3m1 0h1m2 0h1m3 0h1m1 0h2m1 0h3m10 0h1m7 0h2m4 0h2m1 0h1m1 0h1m3 0h1m1 0h1m1 0h3m1 0h2m2 0h1m1 0h5m1 0h2m2 0h1m2 0h1m1 0h4m3 0h2m1 0h1M5 49.5h1m1 0h1m1 0h1m1 0h1m2 0h1m3 0h2m1 0h1m3 0h1m4 0h1m2 0h2m2 0h1m1 0h1m2 0h1m1 0h1m2 0h2m2 0h1m1 0h2m1 0h3m2 0h1m1 0h3m1 0h1m1 0h2m2 0h1m1 0h1m2 0h4m1 0h3m3 0h1m1 0h1m1 0h2m1 0h2m1 0h2m5 0h1m2 0h1M5 50.5h1m2 0h4m2 0h1m2 0h1m1 0h3m2 0h3m2 0h1m3 0h1m3 0h1m1 0h2m1 0h6m2 0h2m1 0h1m1 0h1m2 0h3m1 0h1m1 0h1m2 0h2m3 0h1m1 0h2m3 0h1m1 0h1m1 0h2m2 0h1m1 0h2m5 0h1m1 0h1m1 0h2m6 0h2m1 0h2M4 51.5h1m1 0h2m1 0h1m1 0h1m1 0h5m2 0h1m2 0h1m3 0h2m1 0h1m1 0h1m2 0h5m1 0h2m3 0h1m2 0h1m2 0h7m1 0h1m2 0h5m1 0h2m1 0h1m2 0h2m1 0h1m1 0h1m1 0h1m2 0h1m1 0h2m1 0h2m1 0h2m1 0h1m2 0h1m2 0h1m1 0h1m2 0h3M5 52.5h4m1 0h1m1 0h2m1 0h2m1 0h2m1 0h5m1 0h2m1 0h4m3 0h1m1 0h2m1 0h1m2 0h2m1 0h1m1 0h1m2 0h2m1 0h2m5 0h4m2 0h2m1 0h2m2 0h2m2 0h1m2 0h1m4 0h3m3 0h1m4 0h2m2 0h1m3 0h3M5 53.5h5m1 0h1m1 0h1m1 0h2m1 0h1m2 0h1m2 0h1m1 0h1m2 0h4m1 0h2m1 0h1m3 0h2m4 0h5m2 0h1m2 0h1m1 0h2m1 0h1m2 0h2m2 0h1m1 0h3m1 0h1m2 0h2m3 0h1m1 0h1m2 0h2m3 0h2m1 0h1m1 0h4m1 0h4M4 54.5h3m3 0h1m1 0h3m5 0h1m1 0h1m2 0h1m2 0h3m1 0h2m3 0h1m2 0h1m1 0h1m1 0h3m1 0h1m2 0h5m1 0h1m1 0h1m1 0h1m2 0h1m1 0h2m1 0h2m1 0h6m1 0h1m1 0h1m2 0h5m3 0h1m4 0h6m1 0h1m3 0h1m1 0h1M6 55.5h4m1 0h6m1 0h1m1 0h1m1 0h1m3 0h2m1 0h2m1 0h2m3 0h6m1 0h2m1 0h3m2 0h1m1 0h3m3 0h1m4 0h8m3 0h3m1 0h3m1 0h1m2 0h5m2 0h1m1 0h2m1 0h2m1 0h2m1 0h7M4 56.5h1m1 0h1m1 0h7m1 0h1m2 0h2m3 0h2m1 0h1m2 0h1m1 0h5m1 0h3m4 0h1m2 0h1m3 0h1m1 0h1m1 0h6m1 0h2m1 0h1m1 0h2m5 0h2m1 0h9m2 0h2m1 0h2m6 0h1m2 0h7m1 0h1M5 57.5h4m3 0h2m3 0h7m1 0h2m1 0h2m2 0h1m3 0h2m1 0h4m1 0h2m2 0h1m3 0h1m2 0h2m3 0h1m1 0h8m1 0h1m1 0h1m1 0h6m3 0h1m1 0h3m1 0h2m3 0h3m3 0h1m1 0h2m3 0h3m1 0h1M4 58.5h2m1 0h2m1 0h1m1 0h2m3 0h1m2 0h1m3 0h1m2 0h6m1 0h1m1 0h6m1 0h2m3 0h2m2 0h1m1 0h3m1 0h1m1 0h2m1 0h2m1 0h2m4 0h1m1 0h4m1 0h2m1 0h1m1 0h1m3 0h1m3 0h1m1 0h1m1 0h4m1 0h4m1 0h1m1 0h1m2 0h2M4 59.5h3m1 0h1m3 0h2m3 0h1m1 0h2m2 0h1m1 0h5m2 0h1m3 0h1m5 0h1m1 0h1m1 0h1m1 0h1m2 0h2m1 0h3m3 0h1m1 0h1m1 0h3m2 0h4m3 0h5m3 0h3m2 0h1m2 0h2m1 0h1m2 0h3m2 0h2m3 0h1m1 0h1M5 60.5h1m1 0h6m4 0h1m5 0h1m2 0h2m1 0h1m2 0h6m2 0h7m3 0h1m1 0h1m3 0h9m1 0h2m2 0h3m2 0h2m2 0h9m1 0h1m3 0h3m4 0h1m1 0h1m1 0h9M5 61.5h1m8 0h1m1 0h2m5 0h1m1 0h4m4 0h1m2 0h1m1 0h3m1 0h1m3 0h1m1 0h1m1 0h5m1 0h1m4 0h1m2 0h3m1 0h1m1 0h2m1 0h1m1 0h1m1 0h2m1 0h1m1 0h1m3 0h2m2 0h2m1 0h4m1 0h1m1 0h3m1 0h1m3 0h4M4 62.5h1m1 0h2m1 0h3m1 0h4m2 0h2m1 0h6m1 0h2m2 0h4m4 0h2m2 0h2m2 0h1m1 0h1m2 0h1m2 0h2m1 0h2m1 0h2m2 0h1m3 0h2m1 0h4m3 0h1m2 0h1m1 0h4m1 0h1m3 0h2m1 0h1m9 0h2m1 0h1M4 63.5h2m2 0h2m1 0h4m1 0h1m2 0h2m1 0h1m1 0h5m3 0h6m4 0h2m2 0h1m1 0h2m1 0h2m2 0h1m4 0h1m3 0h3m1 0h4m1 0h1m3 0h3m1 0h1m2 0h2m1 0h5m1 0h2m1 0h2m1 0h10m1 0h1M5 64.5h2m1 0h1m1 0h1m1 0h2m2 0h4m4 0h3m1 0h1m1 0h3m1 0h2m2 0h1m1 0h1m3 0h3m2 0h3m1 0h1m2 0h3m3 0h1m2 0h1m1 0h1m1 0h2m1 0h4m1 0h1m2 0h1m2 0h1m1 0h1m4 0h1m3 0h1m3 0h2m1 0h1m2 0h4m2 0h1M4 65.5h1m1 0h1m5 0h1m2 0h1m1 0h1m1 0h1m1 0h1m3 0h2m7 0h2m1 0h4m1 0h1m4 0h2m2 0h7m1 0h1m5 0h2m1 0h4m1 0h2m1 0h1m1 0h1m1 0h1m1 0h1m4 0h2m1 0h1m2 0h5m4 0h2m7 0h1M6 66.5h1m3 0h1m1 0h2m3 0h1m1 0h2m2 0h3m1 0h1m2 0h1m5 0h5m1 0h1m1 0h2m2 0h2m1 0h2m1 0h2m1 0h2m2 0h1m1 0h2m1 0h2m1 0h2m1 0h2m1 0h2m1 0h1m4 0h2m1 0h1m2 0h1m1 0h2m2 0h1m1 0h2m2 0h1m1 0h1m1 0h8M5 67.5h2m2 0h1m3 0h2m4 0h1m3 0h1m1 0h4m2 0h2m3 0h1m1 0h2m1 0h1m2 0h1m1 0h1m1 0h3m2 0h3m4 0h2m2 0h1m6 0h2m3 0h1m2 0h1m2 0h1m1 0h2m1 0h2m1 0h2m1 0h2m1 0h2m1 0h4m2 0h1m1 0h2m2 0h1M5 68.5h1m1 0h1m2 0h5m4 0h2m1 0h1m3 0h2m1 0h3m2 0h3m7 0h4m1 0h1m1 0h1m3 0h1m1 0h1m1 0h1m2 0h1m1 0h2m1 0h1m2 0h1m1 0h4m1 0h3m2 0h2m3 0h3m5 0h1m4 0h4m1 0h1m1 0h1m2 0h1M5 69.5h4m3 0h2m1 0h4m2 0h1m2 0h1m1 0h3m2 0h1m1 0h3m7 0h1m1 0h1m2 0h2m1 0h1m7 0h1m1 0h1m1 0h2m1 0h4m2 0h1m7 0h1m8 0h1m1 0h4m3 0h1m1 0h1m1 0h1m1 0h2m2 0h1m1 0h2M4 70.5h1m2 0h2m1 0h11m8 0h2m3 0h2m1 0h1m3 0h2m3 0h4m2 0h1m1 0h2m3 0h2m1 0h4m1 0h1m4 0h1m1 0h3m1 0h1m1 0h3m4 0h5m4 0h1m1 0h3m1 0h2m1 0h3m1 0h1M4 71.5h1m6 0h4m1 0h1m1 0h3m1 0h3m1 0h1m3 0h1m2 0h5m2 0h4m1 0h2m2 0h3m1 0h3m1 0h1m1 0h1m1 0h1m2 0h3m2 0h5m2 0h1m2 0h2m1 0h1m2 0h1m2 0h1m1 0h1m2 0h5m2 0h1m3 0h3m1 0h1m2 0h1M7 72.5h2m1 0h2m2 0h2m2 0h2m3 0h1m2 0h4m1 0h1m2 0h1m1 0h2m1 0h1m1 0h2m1 0h1m1 0h2m1 0h2m2 0h3m1 0h1m1 0h1m1 0h1m1 0h1m7 0h1m1 0h3m1 0h1m1 0h2m2 0h2m6 0h1m1 0h5m1 0h3m2 0h2m1 0h1m2 0h3M5 73.5h4m4 0h1m3 0h5m1 0h6m2 0h4m1 0h6m2 0h1m10 0h2m3 0h2m3 0h4m1 0h5m1 0h3m1 0h1m1 0h2m3 0h2m1 0h2m1 0h3m5 0h1m2 0h4m3 0h1M7 74.5h1m1 0h3m1 0h2m3 0h1m4 0h1m2 0h1m2 0h4m2 0h1m2 0h1m2 0h1m1 0h3m1 0h1m2 0h2m2 0h1m1 0h2m1 0h2m3 0h3m3 0h1m1 0h1m2 0h1m1 0h2m4 0h1m1 0h4m2 0h1m1 0h1m1 0h3m1 0h2m1 0h6m3 0h2M4 75.5h1m2 0h1m1 0h1m1 0h2m4 0h1m3 0h1m1 0h1m2 0h3m2 0h2m4 0h3m1 0h6m1 0h1m2 0h2m2 0h7m1 0h2m1 0h2m1 0h2m1 0h2m1 0h2m1 0h1m1 0h1m2 0h1m1 0h1m2 0h3m3 0h2m1 0h2m2 0h4m1 0h2m4 0h1M5 76.5h3m2 0h1m1 0h1m2 0h1m1 0h2m1 0h1m3 0h2m1 0h2m1 0h1m3 0h1m1 0h1m1 0h4m1 0h3m2 0h1m1 0h1m1 0h3m5 0h3m1 0h3m2 0h4m3 0h1m5 0h1m4 0h1m4 0h1m3 0h7m1 0h2m1 0h1m2 0h1m1 0h1M5 77.5h1m1 0h3m3 0h1m3 0h1m4 0h2m4 0h2m1 0h1m3 0h7m4 0h1m2 0h1m2 0h1m3 0h2m1 0h1m1 0h2m2 0h3m1 0h1m1 0h1m1 0h1m3 0h1m2 0h2m2 0h2m1 0h2m1 0h1m1 0h6m1 0h2m3 0h2m1 0h1m1 0h2M5 78.5h1m3 0h2m1 0h1m2 0h1m3 0h2m2 0h4m2 0h1m1 0h2m1 0h1m4 0h2m1 0h1m1 0h1m1 0h4m1 0h1m2 0h1m1 0h1m1 0h2m4 0h4m2 0h3m4 0h2m2 0h3m1 0h1m2 0h1m1 0h1m2 0h1m2 0h1m1 0h4m2 0h4m2 0h1m1 0h1M5 79.5h1m1 0h1m1 0h1m1 0h2m2 0h2m2 0h1m4 0h1m1 0h1m2 0h2m1 0h1m1 0h3m3 0h1m1 0h2m1 0h3m1 0h1m1 0h2m2 0h4m2 0h1m1 0h2m1 0h2m1 0h2m1 0h2m1 0h2m1 0h1m1 0h2m3 0h3m1 0h4m1 0h1m2 0h1m2 0h4m2 0h3m2 0h2M7 80.5h7m1 0h1m5 0h3m1 0h1m2 0h2m1 0h7m1 0h3m2 0h1m1 0h1m2 0h1m2 0h1m1 0h8m1 0h3m1 0h1m2 0h1m1 0h4m1 0h9m2 0h1m4 0h1m1 0h2m4 0h2m1 0h5m1 0h1M4 81.5h1m1 0h3m3 0h2m6 0h2m3 0h1m1 0h4m1 0h1m3 0h6m1 0h1m1 0h5m2 0h5m3 0h1m2 0h4m1 0h3m1 0h1m1 0h3m2 0h2m3 0h3m2 0h2m3 0h1m1 0h1m5 0h1m1 0h1m3 0h1M4 82.5h2m2 0h1m1 0h1m1 0h4m1 0h2m2 0h1m1 0h2m1 0h1m1 0h1m1 0h1m1 0h1m1 0h1m1 0h1m1 0h1m1 0h2m3 0h2m1 0h4m3 0h2m1 0h1m1 0h2m2 0h1m1 0h1m2 0h2m1 0h2m1 0h1m2 0h1m1 0h1m1 0h1m1 0h2m4 0h2m1 0h2m1 0h2m1 0h2m1 0h3m1 0h1m1 0h1m1 0h1m1 0h1M4 83.5h2m2 0h1m3 0h1m5 0h2m1 0h1m2 0h1m2 0h1m2 0h3m3 0h2m2 0h2m3 0h1m2 0h2m1 0h4m1 0h1m3 0h2m6 0h2m1 0h1m2 0h5m1 0h1m3 0h1m2 0h2m3 0h1m2 0h1m1 0h3m2 0h1m1 0h1m3 0h2m1 0h2M5 84.5h2m1 0h6m3 0h1m6 0h1m3 0h11m1 0h1m1 0h2m2 0h1m3 0h1m1 0h2m2 0h7m1 0h2m1 0h2m2 0h3m2 0h1m3 0h6m3 0h1m1 0h4m1 0h2m3 0h1m2 0h5m1 0h1M4 85.5h1m4 0h1m1 0h1m1 0h1m1 0h2m1 0h3m1 0h1m1 0h1m2 0h2m5 0h4m2 0h2m1 0h4m3 0h2m2 0h4m1 0h1m2 0h1m1 0h2m3 0h2m1 0h1m3 0h5m4 0h4m1 0h3m3 0h3m3 0h1m5 0h1M4 86.5h1m1 0h1m2 0h2m1 0h2m1 0h8m1 0h1m2 0h1m3 0h1m3 0h1m2 0h1m3 0h2m1 0h1m2 0h1m2 0h3m1 0h1m1 0h1m1 0h3m1 0h1m2 0h5m2 0h1m4 0h2m1 0h1m1 0h1m1 0h1m1 0h2m1 0h1m2 0h5m1 0h2m1 0h3m2 0h1m1 0h1m2 0h1M7 87.5h2m2 0h1m2 0h3m1 0h1m2 0h1m5 0h1m1 0h2m6 0h6m1 0h1m2 0h3m2 0h1m1 0h3m1 0h4m1 0h2m2 0h1m2 0h1m1 0h1m1 0h3m2 0h2m2 0h1m2 0h2m1 0h1m2 0h1m2 0h1m1 0h1m4 0h1m2 0h3m1 0h1m1 0h1M5 88.5h1m3 0h2m3 0h2m1 0h1m1 0h2m4 0h1m1 0h1m2 0h1m1 0h2m1 0h2m3 0h1m2 0h2m1 0h1m1 0h2m2 0h1m7 0h1m1 0h1m1 0h1m4 0h4m2 0h2m1 0h2m2 0h1m1 0h5m1 0h2m1 0h2m1 0h1m1 0h1m1 0h2m1 0h1m3 0h1M9 89.5h1m2 0h2m2 0h2m2 0h5m4 0h5m1 0h1m2 0h4m2 0h7m1 0h1m1 0h4m1 0h1m4 0h2m4 0h1m3 0h1m1 0h1m1 0h3m1 0h1m1 0h3m3 0h4m3 0h1m2 0h1m1 0h1m1 0h2m2 0h1m2 0h2M5 90.5h1m3 0h2m1 0h1m1 0h1m1 0h3m2 0h4m3 0h2m3 0h1m1 0h7m1 0h1m1 0h1m2 0h1m2 0h5m1 0h1m2 0h2m1 0h2m6 0h2m1 0h1m1 0h2m1 0h1m2 0h1m2 0h1m1 0h2m1 0h1m1 0h6m2 0h1m1 0h1m1 0h6m1 0h2M7 91.5h1m3 0h1m4 0h2m2 0h1m1 0h3m1 0h1m1 0h3m1 0h2m2 0h2m1 0h1m2 0h2m3 0h3m2 0h1m1 0h2m2 0h3m3 0h3m1 0h4m1 0h1m3 0h7m5 0h1m2 0h1m1 0h2m1 0h2m2 0h2m1 0h1m1 0h1m1 0h2M4 92.5h5m1 0h1m1 0h2m2 0h2m1 0h3m1 0h2m3 0h2m1 0h1m3 0h1m1 0h2m1 0h4m2 0h3m1 0h1m1 0h4m4 0h1m4 0h4m1 0h2m1 0h2m1 0h2m5 0h2m1 0h1m1 0h1m1 0h1m3 0h1m1 0h3m2 0h2m4 0h4M4 93.5h4m5 0h4m4 0h2m1 0h1m1 0h1m2 0h2m2 0h3m3 0h2m1 0h2m1 0h1m2 0h1m1 0h2m2 0h6m7 0h2m1 0h1m4 0h5m1 0h1m4 0h4m1 0h3m1 0h2m12 0h1m1 0h1M7 94.5h2m1 0h1m2 0h1m3 0h1m1 0h3m2 0h1m2 0h2m1 0h4m3 0h1m4 0h1m2 0h2m1 0h1m2 0h4m1 0h6m1 0h1m2 0h1m2 0h2m1 0h2m2 0h1m1 0h1m2 0h2m4 0h1m1 0h1m2 0h1m5 0h1m3 0h1m1 0h2m2 0h1m1 0h3M4 95.5h1m2 0h3m3 0h2m1 0h1m1 0h4m2 0h1m3 0h1m3 0h2m3 0h4m1 0h3m1 0h4m2 0h1m1 0h1m1 0h2m1 0h6m1 0h3m2 0h1m1 0h1m4 0h2m5 0h1m2 0h1m1 0h3m1 0h4m1 0h1m6 0h4m1 0h2M4 96.5h7m1 0h1m1 0h1m1 0h1m1 0h2m2 0h1m1 0h2m1 0h1m1 0h1m2 0h1m1 0h3m2 0h2m2 0h1m1 0h1m1 0h3m1 0h3m1 0h2m2 0h2m3 0h1m1 0h1m1 0h2m1 0h6m1 0h2m1 0h1m1 0h1m1 0h1m3 0h3m2 0h2m1 0h10m2 0h1m1 0h2M4 97.5h2m2 0h2m4 0h2m2 0h1m3 0h2m1 0h2m1 0h1m1 0h3m1 0h1m1 0h4m2 0h1m5 0h3m1 0h4m3 0h1m1 0h2m2 0h5m2 0h9m1 0h1m1 0h2m1 0h1m5 0h2m2 0h2m1 0h1m1 0h3m1 0h2m2 0h2M8 98.5h4m1 0h1m2 0h2m1 0h1m1 0h1m1 0h1m1 0h1m2 0h3m1 0h1m1 0h1m1 0h8m2 0h1m1 0h2m4 0h3m1 0h2m2 0h4m1 0h1m1 0h2m1 0h2m1 0h2m1 0h1m1 0h3m1 0h1m2 0h4m3 0h1m1 0h1m2 0h1m1 0h2m1 0h1m4 0h1M4 99.5h1m2 0h1m1 0h1m1 0h1m1 0h1m1 0h1m1 0h4m2 0h1m5 0h4m1 0h1m1 0h1m5 0h1m1 0h1m1 0h1m1 0h2m1 0h2m2 0h4m5 0h1m1 0h1m2 0h1m1 0h2m1 0h1m5 0h2m2 0h2m1 0h1m2 0h6m1 0h1m1 0h2m1 0h1m2 0h3m2 0h1M4 100.5h2m3 0h2m2 0h2m2 0h2m1 0h2m1 0h5m1 0h1m3 0h3m3 0h1m2 0h1m1 0h2m2 0h4m1 0h6m1 0h2m2 0h1m1 0h2m1 0h3m2 0h1m1 0h1m4 0h2m1 0h1m1 0h4m3 0h5m1 0h1m3 0h5m1 0h1m1 0h2M4 101.5h2m3 0h1m1 0h1m1 0h1m2 0h4m2 0h3m1 0h2m1 0h2m5 0h5m1 0h1m2 0h2m1 0h1m1 0h3m1 0h2m3 0h3m1 0h2m4 0h3m1 0h1m1 0h2m2 0h2m1 0h2m3 0h5m6 0h1m1 0h1m1 0h1m1 0h6m1 0h1M5 102.5h4m1 0h7m2 0h2m2 0h2m2 0h1m1 0h2m2 0h5m4 0h2m1 0h1m1 0h2m3 0h1m3 0h2m1 0h3m1 0h2m1 0h2m1 0h5m2 0h1m1 0h2m5 0h1m1 0h1m2 0h2m1 0h5m2 0h2m1 0h5m1 0h1m1 0h2M6 103.5h4m5 0h1m1 0h4m2 0h2m2 0h1m1 0h3m3 0h2m1 0h1m5 0h2m3 0h2m2 0h1m2 0h2m2 0h2m1 0h1m1 0h1m2 0h1m2 0h1m1 0h2m2 0h5m1 0h1m1 0h1m1 0h2m3 0h1m1 0h2m6 0h1m3 0h4m1 0h1M4 104.5h3m1 0h1m1 0h2m2 0h2m1 0h1m1 0h2m1 0h1m1 0h1m1 0h1m1 0h2m2 0h8m2 0h2m4 0h3m1 0h10m1 0h2m1 0h4m1 0h1m2 0h1m1 0h2m1 0h10m2 0h2m2 0h3m1 0h1m1 0h2m1 0h9M12 105.5h2m6 0h3m1 0h1m1 0h1m5 0h1m3 0h2m1 0h1m1 0h2m1 0h1m3 0h1m1 0h3m1 0h3m3 0h1m1 0h1m1 0h2m1 0h9m2 0h1m1 0h1m3 0h2m1 0h3m1 0h3m1 0h2m3 0h1m1 0h1m1 0h1m3 0h4M4 106.5h7m1 0h3m2 0h1m2 0h1m1 0h2m2 0h2m4 0h1m1 0h1m1 0h2m1 0h1m2 0h1m1 0h1m1 0h1m1 0h1m2 0h2m3 0h1m1 0h1m1 0h2m4 0h3m2 0h1m2 0h2m1 0h1m1 0h2m1 0h1m1 0h1m3 0h4m2 0h3m3 0h5m1 0h1m1 0h4M4 107.5h1m5 0h1m2 0h1m4 0h1m2 0h3m1 0h2m2 0h2m1 0h1m3 0h1m4 0h3m1 0h3m1 0h2m2 0h1m1 0h2m3 0h1m2 0h1m1 0h2m2 0h2m2 0h1m2 0h3m1 0h1m3 0h2m1 0h1m2 0h1m1 0h3m2 0h1m1 0h1m2 0h1m1 0h1m3 0h1m1 0h2M4 108.5h1m1 0h3m1 0h1m1 0h6m5 0h1m4 0h2m1 0h6m3 0h1m1 0h1m1 0h7m1 0h13m3 0h2m2 0h2m3 0h1m1 0h6m9 0h1m1 0h3m2 0h2m1 0h5m1 0h3M4 109.5h1m1 0h3m1 0h1m2 0h1m2 0h1m1 0h2m2 0h3m1 0h1m1 0h1m1 0h1m1 0h3m2 0h3m3 0h1m4 0h4m2 0h1m1 0h3m5 0h10m1 0h1m3 0h1m1 0h5m3 0h4m1 0h1m1 0h1m1 0h2m2 0h1m1 0h2m6 0h1M4 110.5h1m1 0h3m1 0h1m2 0h4m3 0h1m2 0h1m1 0h2m1 0h4m1 0h1m2 0h1m1 0h1m8 0h2m1 0h1m2 0h1m1 0h6m3 0h3m3 0h3m2 0h4m5 0h1m1 0h1m1 0h2m3 0h1m3 0h3m4 0h4m1 0h1m1 0h1M4 111.5h1m5 0h1m2 0h1m1 0h1m5 0h2m2 0h1m2 0h1m2 0h4m1 0h3m1 0h1m1 0h2m4 0h2m1 0h5m1 0h1m1 0h1m1 0h1m1 0h1m2 0h5m2 0h1m4 0h1m1 0h1m1 0h1m1 0h2m1 0h5m2 0h1m1 0h1m2 0h4m1 0h1m1 0h2m3 0h1M4 112.5h7m1 0h3m4 0h2m1 0h2m1 0h1m1 0h2m2 0h2m1 0h5m1 0h2m3 0h1m2 0h1m1 0h1m1 0h1m1 0h3m1 0h1m1 0h3m1 0h3m1 0h2m2 0h1m8 0h1m2 0h1m1 0h1m2 0h2m1 0h1m1 0h3m1 0h2m4 0h1m1 0h3m1 0h3"/></svg>
